<svg width="42" height="42" viewBox="0 0 42 42" fill="none" xmlns="http://www.w3.org/2000/svg">
<path d="M20.9944 13.997C17.1383 13.997 13.9915 17.1439 13.9915 21C13.9915 24.8561 17.1383 28.003 20.9944 28.003C24.8504 28.003 27.9972 24.8561 27.9972 21C27.9972 17.1439 24.8504 13.997 20.9944 13.997ZM41.9977 21C41.9977 18.1 42.0239 15.2263 41.8611 12.3316C41.6982 8.96937 40.9312 5.98536 38.4726 3.52669C36.0087 1.06278 33.03 0.301015 29.6678 0.138155C26.7679 -0.0247052 23.8943 0.00156264 20.9996 0.00156264C18.0997 0.00156264 15.2261 -0.0247052 12.3314 0.138155C8.9692 0.301015 5.98524 1.06803 3.52663 3.52669C1.06276 5.99061 0.301009 8.96937 0.138152 12.3316C-0.0247047 15.2316 0.00156261 18.1053 0.00156261 21C0.00156261 23.8947 -0.0247047 26.7737 0.138152 29.6684C0.301009 33.0306 1.06801 36.0146 3.52663 38.4733C5.9905 40.9372 8.9692 41.699 12.3314 41.8618C15.2313 42.0247 18.105 41.9984 20.9996 41.9984C23.8995 41.9984 26.7732 42.0247 29.6678 41.8618C33.03 41.699 36.014 40.932 38.4726 38.4733C40.9365 36.0094 41.6982 33.0306 41.8611 29.6684C42.0292 26.7737 41.9977 23.9 41.9977 21ZM20.9944 31.775C15.0317 31.775 10.2195 26.9628 10.2195 21C10.2195 15.0372 15.0317 10.225 20.9944 10.225C26.957 10.225 31.7692 15.0372 31.7692 21C31.7692 26.9628 26.957 31.775 20.9944 31.775ZM32.2105 12.3001C30.8183 12.3001 29.6941 11.1759 29.6941 9.78367C29.6941 8.39148 30.8183 7.26722 32.2105 7.26722C33.6026 7.26722 34.7269 8.39148 34.7269 9.78367C34.7273 10.1143 34.6625 10.4417 34.5362 10.7472C34.4099 11.0527 34.2245 11.3302 33.9908 11.564C33.757 11.7978 33.4794 11.9831 33.174 12.1094C32.8685 12.2357 32.541 12.3005 32.2105 12.3001Z" fill="black"/>
</svg>
