<svg width="143" height="41" viewBox="0 0 143 41" fill="none" xmlns="http://www.w3.org/2000/svg">
<path d="M7.35076 0.140982C4.42729 1.36555 1.21391 4.82071 0.198941 9.161C-1.08664 14.6584 4.26219 16.9839 4.70126 16.2224C5.21756 15.3267 3.74281 15.0239 3.43919 12.1712C3.04685 8.48687 4.75974 4.37018 6.91562 2.56382C7.31578 2.22801 7.29703 2.69534 7.29703 3.5592C7.29703 5.10419 7.21168 18.9741 7.21168 21.8687C7.21168 25.7853 7.04994 27.0222 6.75919 28.2446C6.46508 29.4828 5.99159 30.3198 6.35006 30.6422C6.75079 31.0026 8.46172 30.1449 9.45207 28.7628C10.6397 27.1051 11.0555 25.1137 11.1303 22.952C11.2204 20.3456 11.2164 16.2096 11.2204 13.8505C11.2237 11.6871 11.2567 5.35185 11.1823 1.54325C11.1641 0.608591 8.57338 -0.371402 7.35076 0.140982Z" fill="#343433"/>
<path d="M111.155 18.4695C111.061 20.5059 110.61 22.0973 110.05 23.22C108.967 25.3935 106.72 26.0682 105.766 22.9441C105.246 21.241 105.222 18.3967 105.595 16.0201C105.976 13.5992 107.039 11.7707 108.798 11.9355C110.534 12.0987 111.346 14.3349 111.155 18.4698V18.4695ZM81.8979 31.103C81.8744 34.4863 81.3419 37.4526 80.2001 38.3145C78.5804 39.5362 76.4036 38.6195 76.8544 36.1508C77.2532 33.9661 79.1395 31.7349 81.9027 29.0087C81.9027 29.0087 81.9083 29.6305 81.8979 31.103ZM81.4558 18.4496C81.3567 20.3044 80.8759 22.1673 80.3512 23.22C79.2683 25.3935 77.0049 26.073 76.0669 22.9441C75.4255 20.8061 75.5792 18.0396 75.8962 16.2963C76.3081 14.0343 77.3066 11.9358 79.099 11.9358C80.8418 11.9358 81.7015 13.8479 81.4558 18.4496ZM64.5074 18.4216C64.401 20.3855 64.0179 22.0273 63.4031 23.22C62.2905 25.3787 60.0893 26.0632 59.1188 22.9441C58.4189 20.695 58.6571 17.6286 58.9481 15.9719C59.3802 13.5135 60.462 11.7707 62.1509 11.9358C63.8856 12.1054 64.7287 14.3349 64.5074 18.4216ZM142.177 20.7157C141.753 20.7157 141.56 21.1528 141.399 21.8883C140.844 24.4471 140.26 25.0244 139.508 25.0244C138.667 25.0244 137.911 23.7579 137.717 21.222C137.564 19.2278 137.589 15.5569 137.784 11.9053C137.824 11.1551 137.617 10.4127 135.605 9.68172C134.739 9.36718 133.48 8.90405 132.853 10.4169C131.083 14.6911 130.39 18.0844 130.227 19.4623C130.218 19.5337 130.131 19.5485 130.116 19.3817C130.012 18.2778 129.78 16.2713 129.751 12.0564C129.745 11.234 129.571 10.5341 128.663 9.961C128.074 9.58881 126.286 8.93119 125.642 9.7139C125.084 10.3536 124.437 12.0757 123.766 14.1174C123.22 15.7769 122.84 16.899 122.84 16.899C122.84 16.899 122.847 12.4222 122.854 10.7238C122.857 10.0833 122.417 9.86977 122.285 9.83115C121.689 9.65821 120.513 9.36914 120.015 9.36914C119.399 9.36914 119.248 9.71278 119.248 10.2142C119.248 10.28 119.151 16.1085 119.151 20.184C119.151 20.3612 119.151 20.5543 119.152 20.7597C118.812 22.6329 117.708 25.1755 116.507 25.1755C115.305 25.1755 114.738 24.1127 114.738 19.2539C114.738 16.4194 114.823 15.1867 114.865 13.1366C114.889 11.9557 114.936 11.049 114.934 10.8433C114.925 10.2123 113.834 9.89411 113.326 9.77658C112.816 9.65821 112.373 9.61204 112.026 9.63191C111.536 9.65989 111.19 9.98086 111.19 10.423C111.19 10.6603 111.192 11.1109 111.192 11.1109C110.561 10.1191 109.546 9.42902 108.871 9.22894C107.052 8.68885 105.154 9.16738 103.723 11.1707C102.585 12.7622 101.899 14.5652 101.629 17.1551C101.432 19.0487 101.496 20.9687 101.847 22.5926C101.423 24.425 100.636 25.1755 99.7748 25.1755C98.5239 25.1755 97.6173 23.1344 97.7225 19.6034C97.7919 17.281 98.2567 15.6512 98.7646 13.2933C98.9812 12.2881 98.8052 11.762 98.3639 11.2578C97.9589 10.7952 97.0962 10.5587 95.8565 10.8492C94.9733 11.0566 93.7104 11.2796 92.555 11.4509C92.555 11.4509 92.6249 11.1724 92.682 10.6821C92.9826 8.11043 90.1878 8.31891 89.296 9.14023C88.764 9.63079 88.4016 10.2092 88.2642 11.2491C88.046 12.8996 89.392 13.6781 89.392 13.6781C88.9507 15.6996 87.868 18.3402 86.7503 20.2495C86.1517 21.2723 85.6939 22.0304 85.1026 22.8361C85.0833 19.6029 85.1044 16.3696 85.1659 13.1369C85.1902 11.956 85.2375 11.0734 85.235 10.8674C85.2283 10.4062 84.9588 10.2316 84.3983 10.0111C83.9024 9.81576 83.3164 9.68088 82.7083 9.6333C81.941 9.57398 81.4787 9.98058 81.491 10.4619C81.4933 10.5529 81.4933 11.1109 81.4933 11.1109C80.8622 10.1191 79.8473 9.42902 79.172 9.22894C77.3531 8.68885 75.4552 9.16738 74.0235 11.1707C72.886 12.7622 72.1411 14.9958 71.9298 17.1355C71.7333 19.1293 71.7694 20.8238 72.0375 22.2515C71.7485 23.6809 70.9168 25.1758 69.9768 25.1758C68.7746 25.1758 68.0907 24.1127 68.0907 19.2539C68.0907 16.4194 68.1758 15.1867 68.2177 13.1366C68.2421 11.956 68.2888 11.049 68.2863 10.8433C68.2773 10.2123 67.1863 9.89439 66.6784 9.77658C66.1472 9.65345 65.6886 9.60868 65.3363 9.6347C64.8717 9.66912 64.5449 10.0852 64.5449 10.3956V11.1109C63.9138 10.1191 62.8989 9.42902 62.2236 9.22894C60.4047 8.68885 58.5174 9.17521 57.0751 11.1707C56.1349 12.4717 55.3735 13.914 54.9817 17.1069C54.8683 18.0296 54.8183 18.894 54.825 19.7013C54.45 21.9949 52.7933 24.6382 51.4386 24.6382C50.6459 24.6382 49.8906 23.1002 49.8906 19.8231C49.8906 15.4576 50.1609 9.24181 50.2068 8.64296C50.2068 8.64296 51.9186 8.61386 52.2499 8.60994C53.104 8.60042 53.8772 8.62085 55.0147 8.56237C55.585 8.53354 56.1346 6.48597 55.5458 6.23271C55.2789 6.11798 53.393 6.0178 52.6453 6.00185C52.0168 5.98785 50.2667 5.85801 50.2667 5.85801C50.2667 5.85801 50.4237 1.73236 50.4603 1.29665C50.4911 0.933138 50.021 0.746207 49.7518 0.632872C49.0964 0.355832 48.5101 0.222909 47.8153 0.0796322C46.8549 -0.118493 46.4195 0.0754346 46.3344 0.885566C46.2062 2.11545 46.1399 5.71781 46.1399 5.71781C45.4353 5.71781 43.0281 5.58013 42.3235 5.58013C41.6687 5.58013 40.9618 8.39642 41.8673 8.43112C42.9089 8.47142 44.7242 8.50668 45.9275 8.5425C45.9275 8.5425 45.8738 14.8607 45.8738 16.8117C45.8738 17.0188 45.8749 17.2189 45.876 17.4128C45.2137 20.8646 42.8809 22.7295 42.8809 22.7295C43.3818 20.4457 42.3585 18.7306 40.5152 17.2788C39.836 16.744 38.4953 15.7313 36.9954 14.6214C36.9954 14.6214 37.864 13.7651 38.6347 12.0424C39.1803 10.8218 39.2041 9.42566 37.864 9.11756C35.6499 8.60826 33.8245 10.2344 33.28 11.9705C32.858 13.3154 33.0829 14.313 33.9096 15.3496C33.9698 15.4254 34.0355 15.5029 34.1027 15.5807C33.6032 16.5439 32.9164 17.841 32.3349 18.8467C30.7208 21.6395 29.5016 23.848 28.5801 23.848C27.8435 23.848 27.8533 21.6053 27.8533 19.5057C27.8533 17.6957 27.9871 14.9743 28.094 12.1572C28.1293 11.2253 27.663 10.6945 26.8823 10.2137C26.4077 9.92154 25.395 9.34731 24.8084 9.34731C23.9303 9.34731 21.3972 9.4668 19.004 16.39C18.7023 17.2625 18.1096 18.8526 18.1096 18.8526L18.1609 10.5271C18.1609 10.3318 18.0568 10.1432 17.8186 10.0142C17.4154 9.79505 16.3383 9.34731 15.3804 9.34731C14.9243 9.34731 14.6962 9.55943 14.6962 9.98254L14.6128 23.0079C14.6128 23.9977 14.6385 25.1523 14.7365 25.6571C14.8339 26.1625 14.992 26.5739 15.1873 26.8184C15.3829 27.0627 15.6087 27.2494 15.9812 27.3261C16.3279 27.3974 18.2263 27.6412 18.3251 26.9158C18.4432 26.0461 18.448 25.1058 19.4448 21.5983C20.9967 16.1376 23.02 13.4735 23.9714 12.5271C24.1379 12.362 24.3277 12.3519 24.3184 12.6225C24.2781 13.8197 24.1351 16.8117 24.0391 19.3526C23.7814 26.1541 25.0186 27.4148 26.7869 27.4148C28.1396 27.4148 30.0464 26.0707 32.0904 22.6684C33.2292 20.7724 34.3629 18.8732 35.4912 16.9709C36.1105 17.5443 36.8059 18.1614 37.5005 18.8207C39.1151 20.3531 39.6452 21.8093 39.2934 23.1906C39.0247 24.2465 38.0115 25.3347 36.2085 24.2772C35.6829 23.9686 35.4585 23.7299 34.9302 23.382C34.6464 23.1954 34.2129 23.1394 33.953 23.3353C33.278 23.844 32.8918 24.4916 32.6713 25.293C32.4569 26.073 33.238 26.4852 34.0478 26.8459C34.7449 27.1562 36.2434 27.4374 37.1988 27.4693C40.9221 27.5939 43.9048 25.6717 45.9812 20.7132C46.3529 24.9956 47.9345 27.4187 50.6828 27.4187C52.5202 27.4187 54.3624 25.0437 55.1681 22.7073C55.3992 23.6596 55.7417 24.488 56.1839 25.1884C58.3014 28.5436 62.4094 27.8217 64.4729 24.9724C65.111 24.092 65.2081 23.7758 65.2081 23.7758C65.5092 26.4658 67.6757 27.4058 68.9159 27.4058C70.3053 27.4058 71.7395 26.749 72.745 24.4857C72.8628 24.7314 72.9915 24.9662 73.132 25.1884C75.2495 28.5436 79.3578 27.8217 81.4213 24.9724C81.5187 24.8386 81.6032 24.7177 81.6768 24.6086L81.7373 26.3757L79.8375 28.1183C76.6529 31.037 74.234 33.2505 74.056 35.8287C73.8293 39.1159 76.494 40.3377 78.5127 40.4978C80.6526 40.6676 82.4887 39.4845 83.6153 37.8287C84.607 36.371 85.2562 33.234 85.2084 30.1359C85.1896 28.8951 85.158 27.3177 85.1337 25.6266C86.2516 24.3284 87.5112 22.6875 88.6708 20.7672C89.9346 18.6743 91.289 15.8636 91.9824 13.6761C91.9824 13.6761 93.1592 13.6865 94.4151 13.6042C94.8166 13.5779 94.9322 13.6602 94.8578 13.9543C94.7682 14.3102 93.2711 20.0841 94.6375 23.9305C95.5725 26.5638 97.6805 27.4106 98.9303 27.4106C100.394 27.4106 101.793 26.3058 102.543 24.6654C102.634 24.8481 102.728 25.025 102.831 25.1887C104.949 28.5439 109.042 27.8172 111.121 24.9724C111.59 24.3304 111.856 23.7758 111.856 23.7758C112.301 26.5602 114.467 27.4201 115.707 27.4201C116.999 27.4201 118.225 26.8904 119.22 24.5366C119.262 25.5732 119.327 26.4205 119.43 26.6875C119.493 26.8512 119.86 27.056 120.127 27.1551C121.309 27.5933 122.514 27.3862 122.96 27.2961C123.269 27.2334 123.51 26.9855 123.543 26.3458C123.63 24.6654 123.577 21.8421 124.086 19.7436C124.941 16.2224 125.739 14.8565 126.117 14.1804C126.329 13.8012 126.568 13.7388 126.576 14.1398C126.594 14.9513 126.635 17.3336 126.966 20.535C127.209 22.889 127.534 24.2806 127.784 24.7213C128.497 25.9806 129.377 26.0402 130.094 26.0402C130.55 26.0402 131.504 25.9143 131.418 25.1128C131.377 24.7222 131.449 22.3077 132.293 18.8386C132.843 16.573 133.761 14.5263 134.092 13.7777C134.214 13.5018 134.271 13.7192 134.269 13.7618C134.199 15.3219 134.043 20.425 134.678 23.2161C135.54 26.997 138.032 27.4201 138.901 27.4201C140.755 27.4201 142.272 26.0097 142.782 22.2985C142.905 21.4053 142.723 20.7157 142.177 20.7157Z" fill="#343433"/>
</svg>
