<svg width="185" height="77" viewBox="0 0 185 77" fill="none" xmlns="http://www.w3.org/2000/svg">
<path fill-rule="evenodd" clip-rule="evenodd" d="M22.336 24.312C20.4587 23.288 18.2613 22.776 15.744 22.776C12.8 22.776 10.1333 23.5227 7.744 25.016C5.35467 26.5094 3.456 28.6427 2.048 31.416C0.682667 34.1894 0 37.4107 0 41.08C0 44.7494 0.682667 47.992 2.048 50.808C3.456 53.5814 5.35467 55.736 7.744 57.272C10.1333 58.7654 12.8 59.512 15.744 59.512C18.2613 59.512 20.4587 59 22.336 57.976C24.2133 56.9094 25.6853 55.544 26.752 53.88V58.936C26.752 61.7947 26.0693 63.864 24.704 65.144C23.3813 66.4667 21.5893 67.128 19.328 67.128C17.4507 67.128 15.872 66.7227 14.592 65.912C13.312 65.144 12.5013 64.0774 12.16 62.712H1.344C1.81333 66.9787 3.69067 70.3494 6.976 72.824C10.2613 75.3414 14.5493 76.6 19.84 76.6C23.808 76.6 27.1147 75.8107 29.76 74.232C32.448 72.6534 34.432 70.52 35.712 67.832C37.0347 65.1867 37.696 62.2214 37.696 58.936V23.288H26.752V28.344C25.728 26.68 24.256 25.336 22.336 24.312ZM24.448 34.68C25.984 36.2587 26.752 38.4134 26.752 41.144C26.752 43.8747 25.984 46.0294 24.448 47.608C22.9547 49.1867 21.12 49.976 18.944 49.976C16.768 49.976 14.912 49.1867 13.376 47.608C11.8827 45.9867 11.136 43.8107 11.136 41.08C11.136 38.3494 11.8827 36.216 13.376 34.68C14.912 33.1014 16.768 32.312 18.944 32.312C21.12 32.312 22.9547 33.1014 24.448 34.68ZM46.3815 17.912C47.6188 19.0214 49.1975 19.576 51.1175 19.576C52.9948 19.576 54.5308 19.0214 55.7255 17.912C56.9628 16.76 57.5815 15.352 57.5815 13.688C57.5815 11.9814 56.9628 10.5734 55.7255 9.46402C54.5308 8.31202 52.9948 7.73602 51.1175 7.73602C49.1975 7.73602 47.6188 8.31202 46.3815 9.46402C45.1868 10.5734 44.5895 11.9814 44.5895 13.688C44.5895 15.352 45.1868 16.76 46.3815 17.912ZM45.6135 59H56.5575V23.288H45.6135V59ZM64.3605 31.416C62.9952 34.1894 62.3125 37.4107 62.3125 41.08C62.3125 44.7494 62.9952 47.992 64.3605 50.808C65.7685 53.5814 67.6672 55.736 70.0565 57.272C72.4458 58.7654 75.1125 59.512 78.0565 59.512C80.5738 59.512 82.7712 59 84.6485 57.976C86.5685 56.952 88.0405 55.5867 89.0645 53.88V59H100.008V21.7925L94.716 16.5L89.856 11.64H89.0645V28.216C87.9552 26.552 86.4192 25.2294 84.4565 24.248C82.5365 23.2667 80.4032 22.776 78.0565 22.776C75.1125 22.776 72.4458 23.5227 70.0565 25.016C67.6672 26.5094 65.7685 28.6427 64.3605 31.416ZM86.7605 34.68C88.2965 36.2587 89.0645 38.4134 89.0645 41.144C89.0645 43.8747 88.2965 46.0294 86.7605 47.608C85.2672 49.1867 83.4325 49.976 81.2565 49.976C79.0805 49.976 77.2245 49.1867 75.6885 47.608C74.1952 45.9867 73.4485 43.8107 73.4485 41.08C73.4485 38.3494 74.1952 36.216 75.6885 34.68C77.2245 33.1014 79.0805 32.312 81.2565 32.312C83.4325 32.312 85.2672 33.1014 86.7605 34.68ZM105.59 58.568C106.054 58.984 106.646 59.192 107.366 59.192C108.07 59.192 108.646 58.984 109.094 58.568C109.558 58.136 109.79 57.608 109.79 56.984C109.79 56.344 109.558 55.808 109.094 55.376C108.646 54.944 108.07 54.728 107.366 54.728C106.646 54.728 106.054 54.944 105.59 55.376C105.142 55.808 104.918 56.344 104.918 56.984C104.918 57.608 105.142 58.136 105.59 58.568ZM119.779 45.992C119.075 45.608 118.251 45.416 117.307 45.416C116.203 45.416 115.203 45.696 114.307 46.256C113.411 46.816 112.699 47.616 112.171 48.656C111.659 49.696 111.403 50.904 111.403 52.28C111.403 53.656 111.659 54.872 112.171 55.928C112.699 56.968 113.411 57.776 114.307 58.352C115.203 58.912 116.203 59.192 117.307 59.192C118.251 59.192 119.075 59 119.779 58.616C120.483 58.216 121.035 57.704 121.435 57.08V58.976C121.435 60.048 121.179 60.824 120.667 61.304C120.171 61.8 119.499 62.048 118.651 62.048C117.947 62.048 117.355 61.896 116.875 61.592C116.395 61.304 116.091 60.904 115.963 60.392H111.907C112.083 61.992 112.787 63.256 114.019 64.184C115.251 65.128 116.859 65.6 118.843 65.6C120.331 65.6 121.571 65.304 122.563 64.712C123.571 64.12 124.315 63.32 124.795 62.312C125.291 61.32 125.539 60.208 125.539 58.976V45.608H121.435V47.504C121.051 46.88 120.499 46.376 119.779 45.992ZM120.571 49.88C121.147 50.472 121.435 51.28 121.435 52.304C121.435 53.328 121.147 54.136 120.571 54.728C120.011 55.32 119.323 55.616 118.507 55.616C117.691 55.616 116.995 55.32 116.419 54.728C115.859 54.12 115.579 53.304 115.579 52.28C115.579 51.256 115.859 50.456 116.419 49.88C116.995 49.288 117.691 48.992 118.507 48.992C119.323 48.992 120.011 49.288 120.571 49.88ZM134.413 46.112C133.693 46.528 133.092 47.104 132.613 47.84V45.608H128.508V59H132.613V52.784C132.613 51.68 132.868 50.912 133.38 50.48C133.893 50.032 134.661 49.808 135.684 49.808H136.812V45.464C135.932 45.464 135.133 45.68 134.413 46.112ZM141.318 58.352C142.374 58.912 143.558 59.192 144.87 59.192C146.182 59.192 147.366 58.912 148.422 58.352C149.494 57.792 150.334 56.992 150.942 55.952C151.566 54.896 151.878 53.68 151.878 52.304C151.878 50.928 151.574 49.72 150.966 48.68C150.358 47.624 149.526 46.816 148.47 46.256C147.414 45.696 146.23 45.416 144.918 45.416C143.606 45.416 142.422 45.696 141.366 46.256C140.31 46.816 139.478 47.624 138.87 48.68C138.262 49.72 137.958 50.928 137.958 52.304C137.958 53.696 138.254 54.912 138.846 55.952C139.454 56.992 140.278 57.792 141.318 58.352ZM146.862 54.776C146.318 55.352 145.654 55.64 144.87 55.64C144.086 55.64 143.43 55.352 142.902 54.776C142.39 54.2 142.134 53.376 142.134 52.304C142.134 51.216 142.398 50.392 142.926 49.832C143.454 49.256 144.118 48.968 144.918 48.968C145.702 48.968 146.358 49.256 146.886 49.832C147.43 50.408 147.702 51.232 147.702 52.304C147.702 53.376 147.422 54.2 146.862 54.776ZM167.279 59V45.608H163.175V52.88C163.175 53.776 162.943 54.472 162.479 54.968C162.015 55.464 161.383 55.712 160.583 55.712C159.799 55.712 159.175 55.464 158.711 54.968C158.247 54.472 158.015 53.776 158.015 52.88V45.608H153.935V53.432C153.935 54.6 154.151 55.616 154.583 56.48C155.015 57.344 155.623 58.008 156.407 58.472C157.191 58.92 158.095 59.144 159.119 59.144C159.983 59.144 160.767 58.968 161.471 58.616C162.191 58.248 162.759 57.768 163.175 57.176V59H167.279ZM175.987 45.992C175.283 46.376 174.731 46.88 174.331 47.504V45.608H170.227V65.384H174.331V57.128C174.731 57.736 175.283 58.232 175.987 58.616C176.707 59 177.531 59.192 178.459 59.192C179.563 59.192 180.563 58.912 181.459 58.352C182.355 57.776 183.059 56.968 183.571 55.928C184.099 54.872 184.363 53.656 184.363 52.28C184.363 50.904 184.099 49.696 183.571 48.656C183.059 47.616 182.355 46.816 181.459 46.256C180.563 45.696 179.563 45.416 178.459 45.416C177.515 45.416 176.691 45.608 175.987 45.992ZM179.323 49.88C179.899 50.456 180.187 51.256 180.187 52.28C180.187 53.304 179.899 54.12 179.323 54.728C178.747 55.32 178.051 55.616 177.235 55.616C176.419 55.616 175.723 55.32 175.147 54.728C174.587 54.136 174.307 53.328 174.307 52.304C174.307 51.28 174.587 50.472 175.147 49.88C175.723 49.288 176.419 48.992 177.235 48.992C178.067 48.992 178.763 49.288 179.323 49.88Z" fill="white"/>
<path fill-rule="evenodd" clip-rule="evenodd" d="M111.216 32V0H79.2158L89.2158 10H101.208V21.992L111.216 32Z" fill="#FAFF09"/>
</svg>
