<svg width="56" height="56" viewBox="0 0 56 56" fill="none" xmlns="http://www.w3.org/2000/svg">
<path d="M24.5757 47.9386L24.5759 47.9385C24.5711 47.9307 24.5669 47.9233 24.5636 47.917C24.5597 47.9098 24.557 47.9041 24.5555 47.901C24.5552 47.9004 24.5549 47.8998 24.5546 47.8993C24.5521 47.8954 24.5494 47.8913 24.5466 47.8869C24.5088 47.8284 24.4488 47.7355 24.4162 47.6275M24.5757 47.9386L24.4162 47.6275M24.5757 47.9386L24.5817 47.9475C24.6343 48.0253 24.6936 48.0861 24.7468 48.1369C24.7965 48.1882 24.8572 48.2472 24.9346 48.2996L24.9345 48.2998L24.9437 48.3055C24.9586 48.3147 24.9724 48.3216 24.9783 48.3246C24.9804 48.3257 24.982 48.3265 24.9831 48.3271C24.988 48.3302 24.9932 48.3335 24.9986 48.337C25.0573 48.3745 25.1479 48.4324 25.2532 48.4653L25.2543 48.4656C25.5444 48.5548 25.8376 48.5237 26.0812 48.3979L29.1429 47.6977C29.578 47.5983 29.8673 47.253 29.9319 46.8464L39.5654 37.2129V53.0603H2.95129V14.7601H13.6666C14.2703 14.7601 14.7601 14.2703 14.7601 13.6666V2.95129H39.5646V29.3682L32.645 36.2878C32.5213 36.2303 32.3806 36.1915 32.2232 36.1915H10.2926C9.68897 36.1915 9.19916 36.6813 9.19916 37.285C9.19916 37.8887 9.68897 38.3785 10.2926 38.3785H30.5552L25.9683 42.9654C25.5934 43.0501 25.2782 43.3287 25.1844 43.7393L24.4843 46.801M24.5757 47.9386L24.4843 46.801M24.4162 47.6275C24.3285 47.3386 24.3583 47.045 24.4843 46.801M24.4162 47.6275L24.4843 46.801M54.6747 19.3697L53.4854 18.1804C52.7307 17.4257 51.5071 17.4257 50.7524 18.1804L41.7516 27.1813V2.70129C41.7516 1.63117 40.8847 0.764323 39.8146 0.764323H14.5101C14.4053 0.764323 14.3018 0.760826 14.1952 0.757224C14.1613 0.756081 14.1271 0.754926 14.0925 0.75387C13.9525 0.749597 13.8071 0.747046 13.6665 0.756206C13.3875 0.774384 13.0877 0.840703 12.8564 1.07204L1.07204 12.8564C0.842979 13.0854 0.774771 13.369 0.756235 13.6461C0.747029 13.7837 0.749605 13.9278 0.753866 14.07C0.754832 14.1022 0.755883 14.1343 0.756934 14.1664C0.760628 14.2793 0.764323 14.3921 0.764323 14.5101V53.3103C0.764323 54.3805 1.63117 55.2473 2.70129 55.2473H39.8146C40.8847 55.2473 41.7516 54.3805 41.7516 53.3103V35.0259L54.6747 22.1028C55.4294 21.3481 55.4294 20.1244 54.6747 19.3697ZM4.49331 12.5731L12.5731 4.49331V12.5731H4.49331ZM52.9534 20.7358L28.0908 45.5993L27.0409 45.8394L27.2964 44.7213L52.1176 19.9001L52.9534 20.7358ZM10.2918 21.5079H32.2224C32.8261 21.5079 33.3159 21.0181 33.3159 20.4145C33.3159 19.8108 32.8261 19.321 32.2224 19.321H10.2918C9.68813 19.321 9.19832 19.8108 9.19832 20.4145C9.19832 21.0181 9.68813 21.5079 10.2918 21.5079ZM10.2918 29.9428H32.2224C32.8261 29.9428 33.3159 29.453 33.3159 28.8493C33.3159 28.2456 32.8261 27.7558 32.2224 27.7558H10.2918C9.68813 27.7558 9.19832 28.2456 9.19832 28.8493C9.19832 29.453 9.68813 29.9428 10.2918 29.9428Z" fill="black" stroke="black" stroke-width="0.5"/>
</svg>
