<svg width="59" height="59" viewBox="0 0 59 59" fill="none" xmlns="http://www.w3.org/2000/svg">
<path d="M57.2138 30.8166C58.0925 29.9379 58.0925 28.5133 57.2138 27.6346L51.8609 22.2817C51.5327 21.9535 51.3483 21.5084 51.3483 21.0443V7.02607C51.3483 5.78343 50.341 4.77606 49.0983 4.77606H44.2562C43.0135 4.77606 42.0062 5.78342 42.0062 7.02606V8.20211C42.0062 9.76119 40.1212 10.542 39.0187 9.43955L30.8166 1.23744C29.9379 0.358756 28.5133 0.358758 27.6346 1.23744L1.23744 27.6346C0.358758 28.5133 0.358756 29.9379 1.23744 30.8166L2.36271 31.9419C3.06258 32.6418 4.19729 32.6418 4.89716 31.9419C5.71115 31.1279 7.10295 31.7044 7.10295 32.8556V56.079C7.10295 57.3216 8.11031 58.329 9.35295 58.329H49.0983C50.341 58.329 51.3483 57.3216 51.3483 56.079V32.8556C51.3483 31.7044 52.7401 31.1279 53.5541 31.9419C54.254 32.6418 55.3887 32.6418 56.0886 31.9419L57.2138 30.8166ZM3.2948 29.5608C3.10971 29.3757 3.10971 29.0756 3.2948 28.8905L27.9882 4.1971C28.6716 3.51368 29.7797 3.51368 30.4631 4.1971L40.5267 14.2607C41.9441 15.6781 44.3677 14.6743 44.3677 12.6697V8.88757C44.3677 7.92107 45.1512 7.13757 46.1177 7.13757H47.2368C48.2033 7.13757 48.9868 7.92107 48.9868 8.88757V21.7889C48.9868 22.3856 49.2239 22.9579 49.6458 23.3799L55.1565 28.8905C55.3416 29.0756 55.3416 29.3757 55.1565 29.5608C54.9714 29.7459 54.6713 29.7459 54.4862 29.5608L30.8166 5.8912C29.9379 5.01252 28.5133 5.01252 27.6346 5.8912L3.96507 29.5608C3.77998 29.7459 3.47989 29.7459 3.2948 29.5608ZM9.46445 27.3914C9.46445 27.3859 9.46429 27.3805 9.46398 27.3751L27.9882 8.85086C28.6716 8.16745 29.7797 8.16744 30.4631 8.85086L48.9873 27.3751C48.987 27.3805 48.9868 27.3859 48.9868 27.3914V54.2175C48.9868 55.184 48.2033 55.9675 47.2368 55.9675H11.2145C10.248 55.9675 9.46445 55.184 9.46445 54.2175V27.3914Z" fill="black" stroke="black" stroke-width="0.5"/>
<path d="M43.5296 38.533C43.5296 38.3126 43.5082 38.0975 43.4678 37.8891C43.2709 36.8722 43.309 35.6633 43.4861 34.6264C43.5146 34.4591 43.5296 34.2873 43.5296 34.1119C43.5296 32.2985 42.0681 30.837 40.2547 30.837H34.6875V24.5717C34.6875 22.1067 32.714 20.1333 30.2491 20.1333C29.2268 20.1333 28.3703 20.9898 28.3703 22.0121V25.952C28.3703 26.1509 28.3376 26.3456 28.2693 26.5261C27.4185 28.7757 26.03 30.7435 24.2121 32.2523C24.1795 32.2399 24.1442 32.2331 24.1072 32.2331H17.1709C15.9283 32.2331 14.9209 33.2404 14.9209 34.4831V48.1674C14.9209 49.41 15.9283 50.4174 17.1709 50.4174H23.7904C24.1542 50.4174 24.4492 50.1224 24.4492 49.7585C24.4492 49.6459 24.5757 49.551 24.7018 49.6047C25.9523 50.1361 27.2746 50.4174 28.6668 50.4174H37.7417C39.4155 50.4174 40.7839 49.0489 40.7839 47.3751C40.7839 46.7811 41.0438 46.1662 41.4781 45.7727C42.188 45.1294 42.6454 44.1967 42.6454 43.1867C42.6454 42.1056 42.8938 40.833 43.2877 39.8234C43.4434 39.4242 43.5296 38.9883 43.5296 38.533ZM22.0877 48.0559H19.0324C18.0659 48.0559 17.2824 47.2724 17.2824 46.3059V36.3446C17.2824 35.3781 18.0659 34.5946 19.0324 34.5946H20.3377C21.3042 34.5946 22.0877 35.3781 22.0877 36.3446V48.0559ZM39.0912 44.3329H38.6259C37.9738 44.3329 37.4451 44.8615 37.4451 45.5136C37.4451 45.8528 37.6114 46.1391 37.7798 46.3711C37.851 46.4692 37.929 46.5659 38.0017 46.6558C38.0158 46.6733 38.0297 46.6905 38.0433 46.7075C38.1296 46.8148 38.206 46.9127 38.2679 47.0087C38.3363 47.1149 38.3759 47.2405 38.3759 47.3751C38.3759 47.749 38.069 48.0559 37.6951 48.0559H28.6203C27.4329 48.0559 26.2724 47.7854 25.201 47.2648C24.6964 47.0196 24.4027 46.4733 24.4027 45.8756V35.9637C24.4027 35.4289 24.6472 34.9235 25.0664 34.5916L25.4244 34.3082C25.4244 34.3082 25.4244 34.3082 25.4245 34.3081C27.8838 32.369 29.6802 29.7682 30.6724 26.7915C30.7117 26.6735 30.7318 26.55 30.7318 26.4256V24.4992C30.7318 23.978 30.9997 23.537 31.301 23.3438C31.4487 23.2491 31.5881 23.2231 31.7037 23.2494C31.8156 23.2749 31.9488 23.3592 32.0683 23.5745C32.2322 23.8697 32.326 24.2086 32.326 24.5717V30.8543C32.326 32.1558 33.3687 33.1985 34.6702 33.1985H40.2547C40.7681 33.1985 41.1681 33.5984 41.1681 34.1119C41.1681 34.6254 40.7681 35.0253 40.2547 35.0253C39.9881 35.0253 39.772 35.2415 39.772 35.508V36.2061C39.772 36.5422 39.9235 36.8232 40.1102 37.0497C40.2956 37.2747 40.5324 37.4659 40.7361 37.6235C40.9996 37.8275 41.1681 38.1504 41.1681 38.533C41.1681 39.186 40.6751 39.6791 40.022 39.6791H39.5799C39.5297 39.6791 39.4826 39.6927 39.4422 39.7163C39.4171 39.7131 39.3896 39.7092 39.3593 39.7049C39.066 39.663 38.8412 39.897 38.8412 40.1631V40.8599C38.8412 41.196 38.9927 41.477 39.1794 41.7035C39.3649 41.9285 39.6017 42.1196 39.8053 42.2773C40.0688 42.4812 40.2374 42.8042 40.2374 43.1867C40.2374 43.8398 39.7443 44.3329 39.0912 44.3329Z" fill="black" stroke="black" stroke-width="0.5"/>
</svg>
