<svg width="42" height="56" viewBox="0 0 42 56" fill="none" xmlns="http://www.w3.org/2000/svg">
<path d="M38.5 0H3.5C2.57174 0 1.6815 0.368749 1.02513 1.02513C0.368749 1.6815 0 2.57174 0 3.5V52.5C0 53.4283 0.368749 54.3185 1.02513 54.9749C1.6815 55.6313 2.57174 56 3.5 56H38.5C39.4283 56 40.3185 55.6313 40.9749 54.9749C41.6312 54.3185 42 53.4283 42 52.5V3.5C42 2.57174 41.6312 1.6815 40.9749 1.02513C40.3185 0.368749 39.4283 0 38.5 0ZM3.5 52.5V3.5H38.5V52.5H3.5Z" fill="black"/>
<path d="M10.5 10.5H34.4225V7H8.75C8.28587 7 7.84075 7.18437 7.51256 7.51256C7.18437 7.84075 7 8.28587 7 8.75V16.9225H10.5V10.5Z" fill="black"/>
<path d="M10.5 24.5H7V28H14V21H10.5V24.5Z" fill="black"/>
<path d="M31.5 24.5H28V28H35V21H31.5V24.5Z" fill="black"/>
<path d="M21 24.5H17.5V28H24.5V21H21V24.5Z" fill="black"/>
<path d="M10.5 35H7V38.5H14V31.5H10.5V35Z" fill="black"/>
<path d="M31.5 35H28V38.5H35V31.5H31.5V35Z" fill="black"/>
<path d="M21 35H17.5V38.5H24.5V31.5H21V35Z" fill="black"/>
<path d="M10.5 45.5H7V49H14V42H10.5V45.5Z" fill="black"/>
<path d="M31.5 45.5H28V49H35V42H31.5V45.5Z" fill="black"/>
<path d="M21 45.5H17.5V49H24.5V42H21V45.5Z" fill="black"/>
</svg>
