<svg width="61" height="56" viewBox="0 0 61 56" fill="none" xmlns="http://www.w3.org/2000/svg">
<path d="M49.2252 14.6987C48.9586 14.5114 48.8 14.2061 48.8 13.8804V2.5C48.7992 1.83719 48.5312 1.20175 48.0547 0.733073C47.5782 0.264397 46.9322 0.000760917 46.2583 0H14.7417C14.0678 0.000760917 13.4218 0.264397 12.9453 0.733073C12.4688 1.20175 12.2008 1.83719 12.2 2.5V13.8804C12.2 14.2061 12.0414 14.5114 11.7748 14.6987L0.425153 22.6721C0.158632 22.8593 0 23.1646 0 23.4903V55C0 55.5523 0.447715 56 1 56H60C60.5523 56 61 55.5523 61 55V23.4903C61 23.1646 60.8414 22.8593 60.5748 22.6721L49.2252 14.6987ZM54.4049 23.2534C54.986 23.6617 54.9682 24.5286 54.3709 24.9127L50.3409 27.5042C49.6754 27.9321 48.8 27.4543 48.8 26.6631V21.2399C48.8 20.43 49.7123 19.956 50.3749 20.4216L54.4049 23.2534ZM16.2667 5C16.2667 4.44772 16.7144 4 17.2667 4H43.7333C44.2856 4 44.7333 4.44772 44.7333 5V30.5645C44.7333 30.9047 44.5604 31.2216 44.2743 31.4056L37.9518 35.4718C37.6525 35.6642 37.2735 35.6832 36.9566 35.5215L31.9878 32.9873C31.7112 32.8463 31.3849 32.8416 31.1045 32.9748L25.5807 35.5977C25.2791 35.741 24.9258 35.7242 24.6391 35.553L16.754 30.8441C16.4517 30.6636 16.2667 30.3376 16.2667 29.9856V5ZM31.0394 37.4474C31.3198 37.3143 31.6462 37.3189 31.9227 37.4599L56.3877 49.9376C56.7225 50.1084 56.9333 50.4525 56.9333 50.8284V51C56.9333 51.5523 56.4856 52 55.9333 52H5.06666C4.51438 52 4.06667 51.5523 4.06667 51V50.8875C4.06667 50.5014 4.28894 50.1498 4.63772 49.9842L31.0394 37.4474ZM4.06667 29.7088C4.06667 28.9325 4.91284 28.4522 5.5794 28.8503L19.1265 36.9407C19.8127 37.3504 19.7647 38.3597 19.0427 38.7025L5.4956 45.1351C4.83208 45.4502 4.06667 44.9663 4.06667 44.2318V29.7088ZM43.1631 38.6875C42.4758 38.3369 42.4275 37.3729 43.0765 36.9556L55.3924 29.0344C56.0579 28.6064 56.9333 29.0842 56.9333 29.8755V44.0776C56.9333 44.8245 56.1443 45.3078 55.479 44.9684L43.1631 38.6875ZM10.6251 20.4214C11.2878 19.9559 12.2 20.4299 12.2 21.2397V26.363C12.2 27.1394 11.3538 27.6196 10.6872 27.2215L6.74571 24.8674C6.12379 24.4959 6.09087 23.6071 6.68361 23.1906L10.6251 20.4214Z" fill="black"/>
</svg>
