<svg width="42" height="56" viewBox="0 0 42 56" fill="none" xmlns="http://www.w3.org/2000/svg">
<path d="M40.788 21.6054L40.9926 21.5675V21.3595V6.24612V5.99612H40.7426H38.5858V4.1315C38.5858 2.27581 37.131 0.75 35.3222 0.75H4.01481C2.20553 0.75 0.75 2.27584 0.75 4.1315V4.82171V8.25738V9.83604C0.75 11.6918 2.20554 13.2175 4.01481 13.2175H8.40973C8.7635 14.5197 9.92011 15.4868 11.3014 15.4868C12.6827 15.4868 13.8393 14.5197 14.1931 13.2175H35.3222C37.131 13.2175 38.5858 11.6916 38.5858 9.83604V7.97092H39.0728V19.9159L19.9664 23.4483L19.7619 23.4861V23.6941V27.7759H16.6867H16.4367V28.0259V50.4275C16.4367 52.8677 18.3499 54.8689 20.7217 54.8689C23.0936 54.8689 25.0068 52.8677 25.0068 50.4275V28.026V27.776H24.7568H21.6816V25.1378L40.788 21.6054ZM28.3335 11.2427L33.3564 6.02524L33.5233 5.85187L33.3564 5.67848L32.3526 4.63567L32.1725 4.44857L31.9924 4.63566L25.6315 11.2429H21.6768L22.0315 10.8744L22.1985 10.701L22.0315 10.5276L21.0275 9.4848L20.8474 9.29774L20.6673 9.48481L18.9748 11.2429H15.0775L23.2779 2.7248H27.1752L21.673 8.44029L21.5061 8.61366L21.673 8.78705L22.6768 9.82985L22.8569 10.017L23.037 9.82986L29.8771 2.72468H33.8319L33.0859 3.49957L32.9189 3.67296L33.0859 3.84634L34.0898 4.88915L34.2699 5.07623L34.45 4.88916L36.2011 3.07026C36.4847 3.32752 36.6659 3.70651 36.6659 4.13138V6.68057L32.2739 11.2427H28.3335ZM14.3051 9.23875V5.2221L16.7086 2.7248H20.5762L14.3051 9.23875ZM4.01481 11.2427C3.44604 11.2427 2.95073 10.8677 2.75756 10.3317C3.87235 10.331 4.76245 9.39189 4.76245 8.25738V7.97864C4.76245 7.80952 4.89295 7.68788 5.03304 7.68788C5.17313 7.68788 5.30363 7.80952 5.30363 7.97864V9.14988C5.30363 10.0127 5.72298 10.7821 6.36627 11.2427H4.01481ZM11.3014 13.5121C10.7129 13.5121 10.2176 13.0116 10.2176 12.3765V12.2601C10.2176 10.8669 9.12451 9.71766 7.7607 9.71766C7.47354 9.71766 7.22354 9.4719 7.22354 9.15001V7.97877C7.22354 6.73835 6.25003 5.7132 5.03316 5.7132C3.81628 5.7132 2.84277 6.73835 2.84277 7.97877V8.25751C2.84277 8.3213 2.79487 8.35703 2.7564 8.35703C2.71777 8.35703 2.66991 8.32125 2.66991 8.25751V4.82171V4.1315C2.66991 3.34692 3.28239 2.7248 4.01493 2.7248H12.3854V12.3765C12.3854 12.3765 12.3854 12.3765 12.3854 12.3765C12.3853 13.0116 11.89 13.5121 11.3014 13.5121ZM35.3223 11.2427H34.976L36.666 9.48714V9.83591C36.666 10.6207 36.0539 11.2427 35.3223 11.2427ZM20.7217 52.8942C19.4266 52.8942 18.3565 51.7966 18.3565 50.4277V32.002H23.0869V50.4277C23.087 51.7966 22.0168 52.8942 20.7217 52.8942ZM23.087 30.0272H18.3566V29.7508H23.087V30.0272Z" fill="black" stroke="black" stroke-width="0.5"/>
<path d="M21.6815 33.2217V32.9717H21.4315H20.0117H19.7617V33.2217V35.0839V35.3339H20.0117H21.4315H21.6815V35.0839V33.2217Z" fill="black" stroke="black" stroke-width="0.5"/>
<path d="M21.6815 36.3062V36.0562H21.4315H20.0117H19.7617V36.3062V50.3317V50.5817H20.0117H21.4315H21.6815V50.3317V36.3062Z" fill="black" stroke="black" stroke-width="0.5"/>
</svg>
