<svg width="41" height="41" viewBox="0 0 41 41" fill="none" xmlns="http://www.w3.org/2000/svg">
<rect width="41" height="41" rx="5" fill="black"/>
<path d="M21.0811 7.02278C22.5248 7 23.9602 7.0135 25.3939 7C25.4808 8.72219 26.088 10.4764 27.324 11.694C28.5575 12.942 30.3024 13.5133 32 13.7065V18.2368C30.4091 18.1837 28.8107 17.8461 27.367 17.1475C26.7383 16.8572 26.1525 16.4834 25.5792 16.1012C25.5718 19.3886 25.5925 22.6718 25.5585 25.9457C25.4725 27.5186 24.9637 29.0838 24.0669 30.3799C22.624 32.5375 20.1198 33.9441 17.5476 33.9879C15.97 34.0799 14.3939 33.6411 13.0495 32.8328C10.8216 31.4928 9.25382 29.0399 9.02548 26.4073C8.99672 25.8497 8.9923 25.2911 9.01225 24.7332C9.2108 22.5925 10.2491 20.5446 11.8607 19.1515C13.6874 17.5289 16.2463 16.756 18.6422 17.2133C18.6645 18.8798 18.5992 20.5446 18.5992 22.2111C17.5046 21.8499 16.2256 21.9512 15.2692 22.6288C14.5695 23.0989 14.0407 23.7906 13.7643 24.5973C13.536 25.1677 13.6014 25.8014 13.6146 26.4073C13.8769 28.2535 15.6175 29.8052 17.4757 29.6373C18.7075 29.6238 19.8881 28.8948 20.5301 27.8274C20.7378 27.4536 20.9702 27.0714 20.9827 26.6317C21.091 24.6193 21.048 22.6153 21.0613 20.6028C21.0704 16.0674 21.048 11.5447 21.0819 7.02363L21.0811 7.02278Z" fill="white"/>
</svg>
