<svg width="42" height="42" viewBox="0 0 42 42" fill="none" xmlns="http://www.w3.org/2000/svg">
<path d="M21 8.5125C14.1844 8.5125 8.64375 14.0531 8.63437 20.8688C8.63437 23.2031 9.29063 25.4813 10.5281 27.4406L10.8188 27.9094L9.57187 32.4656L14.25 31.2375L14.7 31.5094C16.5938 32.6344 18.7687 33.2344 20.9906 33.2344H21C27.8062 33.2344 33.4969 27.6937 33.4969 20.8781C33.4969 17.5781 32.0719 14.475 29.7375 12.1406C27.3938 9.79688 24.3 8.5125 21 8.5125ZM28.2656 26.175C27.9562 27.0469 26.475 27.8344 25.7625 27.9375C24.5812 28.1156 23.6625 28.0219 21.3094 27.0094C17.5875 25.3969 15.15 21.6469 14.9625 21.4031C14.775 21.1594 13.4437 19.3875 13.4437 17.5594C13.4437 15.7313 14.4 14.8312 14.7469 14.4562C15.0844 14.0812 15.4875 13.9875 15.7406 13.9875C15.9844 13.9875 16.2375 13.9875 16.4531 13.9969C16.6781 14.0063 16.9875 13.9125 17.2875 14.6344C17.5969 15.375 18.3375 17.2031 18.4313 17.3906C18.525 17.5781 18.5906 17.7937 18.4594 18.0375C17.7469 19.4625 16.9875 19.4062 17.3719 20.0625C18.8062 22.5281 20.2406 23.3813 22.425 24.4781C22.8 24.6656 23.0156 24.6375 23.2313 24.3844C23.4469 24.1406 24.1594 23.2969 24.4031 22.9313C24.6469 22.5563 24.9 22.6219 25.2375 22.7438C25.575 22.8656 27.4031 23.7656 27.7781 23.9531C28.1531 24.1406 28.3969 24.2344 28.4906 24.3844C28.575 24.5625 28.575 25.3125 28.2656 26.175ZM37.5 0H4.5C2.01562 0 0 2.01562 0 4.5V37.5C0 39.9844 2.01562 42 4.5 42H37.5C39.9844 42 42 39.9844 42 37.5V4.5C42 2.01562 39.9844 0 37.5 0ZM20.9906 35.7375C18.4969 35.7375 16.05 35.1094 13.8844 33.9281L6 36L8.10938 28.2937C6.80625 26.0437 6.12188 23.4844 6.12188 20.8594C6.13125 12.6656 12.7969 6 20.9906 6C24.9656 6 28.6969 7.54688 31.5094 10.3594C34.3125 13.1719 36 16.9031 36 20.8781C36 29.0719 29.1844 35.7375 20.9906 35.7375Z" fill="black"/>
</svg>
